<?xml version="1.0" encoding="utf-8"?>
<!-- Generator: Adobe Illustrator 26.0.1, SVG Export Plug-In . SVG Version: 6.00 Build 0)  -->
<svg version="1.1" id="Layer_1" xmlns="http://www.w3.org/2000/svg" xmlns:xlink="http://www.w3.org/1999/xlink" x="0px" y="0px"
	 viewBox="0 0 345 300" style="enable-background:new 0 0 345 300;" xml:space="preserve">
<style type="text/css">
	.st0{fill:#050505;}
</style>
<path class="st0" d="M322.1,267c-0.2-0.6-0.4-1.8-0.4-2.5c0-2-1.5-4.6-3.8-6.5c-1.1-0.9-2.7-2.7-3.6-4c-1.8-2.7-3.8-3.8-11-6
	c-7.9-2.4-10.4-4.5-11.1-9.4l-0.4-2.5l-1.4,2.1c-2.8,4.1-4.7,4.8-8.5,3c-2.4-1.1-4.2-1.2-6.2-0.4c-1.3,0.6-1.5,0.5-2.4-0.2
	c-0.9-0.8-1-0.8-2.3-0.1c-1,0.6-1.8,0.7-3.3,0.5c-2.4-0.4-3.7,0.3-5.4,2.9c-3.1,4.9-5.3,2.7-5.3-5.4c0-8.9,4.2-14,16.3-19.6
	c6.2-2.9,9.1-4.8,10.8-7.2c1.3-1.9,1.5-1.9,2-1.1c1.2,1.7,5.5,10.4,7.5,15.4c2.3,5.7,3,6.8,3.9,5.9c0.7-0.7-1.1-6-4.5-13.3
	c-8.7-18.1-21.5-31.1-37.4-37.9c-7.3-3.1-10.9-3.8-20.5-3.8c-7.2,0-9,0.2-13.9,1.2c-7.2,1.5-15.1,4.1-25.3,8.1
	c-10.3,4.1-10.3,4.1-20.6,0.4c-4.2-1.5-9.2-3.1-11.2-3.6c-4-1-9.9-1.2-13.2-0.4c-3.8,0.9-9.2,3.8-15.8,8.4
	c-7.9,5.6-12.2,7.8-17.8,9.3c-4.9,1.3-7,2.4-8.2,4.4c-1,1.6-1.1,2.9-0.3,4.5c0.5,1.1,5.4,4.6,11,8c1.5,0.9,2.9,1.9,3,2.1
	c0.3,0.5-7.3,4.4-13,6.5c-10,3.7-20.7,6.1-36.8,8.1c-10.8,1.3-12.6,1.7-20.6,4.2c-3.2,1-7.8,2.2-10.3,2.8c-10.9,2.3-20.7-0.4-22.2-6
	c-0.3-1-0.8-2.2-1.1-2.5c-2-2.3-2.7-7.8-1.4-10.8c0.4-0.9,1.1-4.2,1.7-7.4c1.9-11,3.8-17,7.8-24.7c7.1-13.5,21.4-30.6,38.6-46.5
	c11.4-10.5,22.2-18.5,47.2-35.2c15.5-10.3,15.6-10.4,17.4-15.4c0.4-1.1,2.3-8.2,4.3-15.8c6.1-23.6,10-32.5,17.2-39.3
	c4.1-3.9,10.6-6.3,14.4-5.3c2.2,0.5,2.3,1.6,0.8,7.6c-2.5,10-3.3,16.3-3.4,25.2c0,8.8,0.5,12.2,2.6,16.3c2.9,5.6,4.8,6.7,16,9
	c39.7,8.1,66.1,20.3,84.9,39.2c17.4,17.5,31.6,44.8,40.8,78.7l1.8,6.4l3.4,2.6c8.6,6.6,13.4,13.2,16,22c1.4,4.6,1.1,14.5-0.4,20.3
	c-1.7,6.2-3.1,8.8-4.8,8.8C322.9,268.2,322.3,267.7,322.1,267L322.1,267z M322.8,254c0.2-0.6,0.2-3.4,0.1-6.2
	c-0.4-8.7-3.1-15-9.3-21.5c-4.7-5-13.4-11.1-15.7-11.1c-0.9,0-1,0.2-0.7,2.2c0.1,1.2,1.1,4.4,2.1,7c1,2.7,2,5.8,2.1,7
	c0.2,1.9,0.1,2.3-0.9,3.3c-1.4,1.4-2.7,1.5-4.7,0.2c-0.8-0.5-1.6-0.8-1.7-0.7c-0.1,0.1-0.1,1,0.1,2c0.6,3.6,2.7,5.1,10.8,7.5
	c11.8,3.5,14.2,5.1,16.1,10.6C321.3,255.6,322.5,255.3,322.8,254L322.8,254z M41.7,237.4c2.1-0.4,6.2-1.5,9.2-2.4
	c6.4-2,11.3-3.1,24.9-5.2c16-2.5,22.4-3.8,29.5-6.1c4.5-1.4,8.7-3.3,8.6-3.9c0-0.2-1.3-1.1-3-2.1c-1.6-1-4.7-3.5-6.7-5.5
	c-2.1-2-4-3.7-4.2-3.7c-1.1,0-4,1.6-7.6,4.2c-10.3,7.5-13.9,9-30.3,12.5c-8.1,1.7-11,2.7-14.8,5.1c-5.3,3.2-6.4,3.8-9.8,4.6
	c-1.9,0.5-5,0.9-6.8,0.9c-4.7,0-5.2,1.5-0.8,2.2C32.6,238.6,36.6,238.4,41.7,237.4L41.7,237.4z M265.2,236.5
	c0.3-0.4,1.5-1.1,2.5-1.6l1.9-0.9l4.1,1.3c5.2,1.6,12,1.8,13.8,0.5l2.6-1.9c0.9-0.7,1.9-1,2.4-0.9c0.5,0.1,0.8,0.2,0.8,0.1
	c0-0.5-6.3-15-6.9-15.9l-0.7-1.1l-2.3,1.8c-1.2,1-5.4,3.7-9.3,6c-10,6-13.2,9.1-12.4,12.1c0.2,0.9,0.6,1.1,1.6,1.1
	C264,237.3,264.9,236.9,265.2,236.5L265.2,236.5z M76.3,210.7c1.1-0.6,2.2-1.3,2.4-1.7c1.9-3.1-5.6-2.8-7.6,0.3
	c-0.5,0.8-0.5,1.1,0.1,1.7C72.2,212,74,211.9,76.3,210.7L76.3,210.7z M90.4,200.9c4.8-1.3,9.7-2.9,11.1-3.7c3.1-1.6,5.7-4.5,7.6-8.2
	c0.7-1.5,2.1-3.4,3.1-4.3c1-0.9,1.7-1.9,1.7-2.3c0-3.5-12-5.1-19.7-2.6c-9.4,3-18.3,12.5-18.5,19.8C75.6,204,78,204.2,90.4,200.9
	L90.4,200.9z M274.6,187.2c0-0.8-3-4.8-5.1-6.8c-4.1-3.9-8.3-6.3-16.4-9.3c-4.8-1.8-6.8-2.9-6.8-3.8c0-0.2,0.4-0.8,0.9-1.3
	c2.5-2.5,14.6,0.6,23.1,5.9c3.4,2.1,7.2,5.1,10.4,8.1c2.4,2.3,2.8,2.5,2.8,1.7c0-1.3-2.2-5.4-4.9-9c-6.8-9-17.8-16-30.1-19.2
	c-9.9-2.5-18.6-2.7-25.9-0.4c-6.8,2.1-14.7,7-22.6,14.1c-11.2,10-14.5,12.8-17.3,14.6c-1.7,1.1-3.1,2.2-3,2.4
	c0.1,0.2,1.4,0.8,2.9,1.3l2.7,0.9l6.7-3.1c13.2-6,25.2-9.9,34.2-11c13.7-1.7,29.1,2.7,42.8,12.1
	C273.2,187.2,274.6,187.9,274.6,187.2L274.6,187.2z M153,225.1c-14.1-1.7-27.5-6.7-38.3-14.2c-2.5-1.7-3.2-2.4-3.3-3.4
	c-0.3-2.5,2-3.9,8.1-5.2c5.4-1.1,9-3,17.1-8.7c11-7.8,15.4-9.5,22.6-9.1c3.4,0.2,5.5,0.8,16.6,4.5c16.7,5.6,34.5,11.9,35.8,12.8
	c3.1,1.9-2.2,9.1-10.5,14.3c-6.2,3.9-14.5,6.9-23,8.5C173.6,225.4,158,225.7,153,225.1L153,225.1z M48.7,155.5
	c-0.2-0.5-0.2-2.7-0.1-4.9c0.6-9.9,6-21.2,13.4-27.8c2.8-2.6,7.3-5.2,8.8-5.2c1.5,0,2.4,1.5,3.5,5.9c0.6,2.3,1.5,4.7,2,5.5
	c0.5,0.7,0.9,1.4,0.8,1.4c-0.1,0.1-2.2,1.7-4.6,3.7c-6,4.8-14.4,12.5-19.4,17.9C49.7,155.6,49,156.2,48.7,155.5L48.7,155.5z"/>
</svg>
