<?xml version="1.0" encoding="utf-8"?>
<!-- Generator: Adobe Illustrator 26.0.1, SVG Export Plug-In . SVG Version: 6.00 Build 0)  -->
<svg version="1.1" id="Layer_1" xmlns="http://www.w3.org/2000/svg" xmlns:xlink="http://www.w3.org/1999/xlink" x="0px" y="0px"
	 viewBox="0 0 256 269" style="enable-background:new 0 0 256 269;" xml:space="preserve">
<style type="text/css">
	.st0{fill:#2CB134;}
</style>
<g>
	<path class="st0" d="M234.2,0c0.7,0,1.3,0.3,1.6,0.9s0.3,1.3-0.1,1.8l0,0l-66.3,90.1c-0.5,0.5-1.2,0.9-1.9,0.9
		c-0.7,0-1.4-0.3-1.9-0.9l0,0l-23.4-26.1c-0.6-0.6-1.4-0.9-2.2-0.8s-1.6,0.5-2,1.2l0,0l-14.2,18c-0.4,1-0.3,2.2,0.4,3.1l0,0
		l42.2,43.7c0.5,0.5,1.2,0.9,1.9,0.9s1.4-0.3,1.9-0.9l0,0l82.8-93.1c0.5-0.5,1.2-0.7,1.9-0.5c0.7,0.3,1.1,0.9,1.1,1.6l0,0v226.5
		c0,0.5-0.2,1-0.5,1.4c-0.4,0.4-0.9,0.6-1.4,0.5l0,0H1.9c-0.5,0-1-0.2-1.4-0.5S0,266.9,0,266.3l0,0V1.9c0-0.5,0.2-1,0.5-1.4
		S1.4,0,1.9,0l0,0H234.2z M169,152.9c-11.4-0.2-22.4,4.3-30.4,12.4c-8,8.1-12.4,19.1-12.1,30.5c0,26.4,19.2,43.3,44.1,43.3
		c11.5,0.3,22.8-3.2,32.2-10c0.9-0.8,1-2.1,0.4-3.1l0,0l-6.9-10.3c-0.8-0.9-2.1-1.1-3.1-0.4c-6,4.1-13.1,6.4-20.3,6.5
		c-13.4,0-21.8-8.4-23.4-18.4c0-0.4,0.4-0.7,0.8-0.8l0,0h57.9c1.2-0.1,2.2-1.1,2.3-2.3l0,0v-2.3C210.4,171.3,193.5,152.9,169,152.9z
		 M111.9,138.3c-11.6-9.5-26.4-14.4-41.4-13.8c-26.1,0-42.2,15.3-42.2,33.7c0,41.8,63.6,28.4,63.6,47.9c0,6.1-6.1,12.3-19.2,12.3
		c-12.4,0.1-24.3-4.6-33.3-13c-0.5-0.5-1.3-0.8-2-0.7s-1.4,0.5-1.8,1.1l0,0l-10,13.8c-0.6,1-0.5,2.3,0.4,3.1
		c10.3,9.6,24.9,16.1,45.2,16.1c29.9,0,44.5-15.3,45.2-35.3c0-41.4-63.6-29.5-63.6-47.1c0-6.5,5.7-11.1,15.7-11.1
		c11-0.2,21.7,3.5,30.3,10.3c0.5,0.4,1.2,0.6,1.8,0.5c0.6-0.1,1.2-0.4,1.6-0.9l0,0l10-13.4c0.4-0.5,0.6-1.2,0.5-1.8
		S112.4,138.7,111.9,138.3z M169.4,169.8c10.4-0.6,19.4,7.2,20.3,17.6c0,0.4-0.4,0.7-0.8,0.8l0,0h-39.1c-0.4,0-0.7-0.4-0.8-0.8
		C150.4,177.2,159.1,169.6,169.4,169.8z"/>
</g>
</svg>
